<?xml version="1.0" standalone="no"?>
<!DOCTYPE svg PUBLIC "-//W3C//DTD SVG 20010904//EN"
 "http://www.w3.org/TR/2001/REC-SVG-20010904/DTD/svg10.dtd">
<svg version="1.0" xmlns="http://www.w3.org/2000/svg"
 width="2264.000000pt" height="2264.000000pt" viewBox="0 0 2264.000000 2264.000000"
 preserveAspectRatio="xMidYMid meet">
<metadata>
Created by potrace 1.14, written by Peter Selinger 2001-2017
</metadata>
<g transform="translate(0.000000,2264.000000) scale(0.100000,-0.100000)"
fill="#000000" stroke="none">
<path d="M10610 18869 c-883 -58 -1706 -251 -2505 -590 -205 -86 -644 -307
-845 -425 -1285 -751 -2337 -1882 -2984 -3209 -411 -842 -651 -1701 -742
-2655 -11 -118 -18 -317 -21 -612 l-5 -436 -47 -13 c-25 -6 -50 -14 -54 -17
-8 -4 -849 -290 -872 -296 -5 -2 -17 -6 -25 -9 -13 -5 -301 -103 -655 -222
-109 -37 -743 -252 -1114 -378 -112 -38 -124 -45 -112 -66 6 -10 363 -125 451
-146 13 -3 565 -167 760 -226 41 -12 80 -24 85 -25 12 -3 182 -54 280 -84 39
-12 77 -23 85 -25 8 -2 89 -26 180 -53 91 -27 174 -52 185 -55 11 -3 49 -14
85 -25 36 -11 112 -34 170 -51 58 -18 143 -43 189 -58 47 -14 92 -27 100 -28
9 -2 16 -4 16 -5 0 -1 7 -3 15 -5 8 -2 157 -46 330 -98 l315 -94 57 -159 c31
-87 68 -189 82 -226 16 -42 21 -66 13 -63 -82 27 -218 69 -242 75 -16 4 -147
45 -290 90 -249 78 -392 123 -735 230 -85 27 -301 94 -480 150 -179 56 -419
131 -535 166 -115 36 -282 88 -370 116 -88 28 -194 61 -235 74 -41 12 -112 34
-157 48 -172 54 -243 76 -403 126 -351 110 -486 152 -515 161 -35 11 -65 3
-65 -16 0 -15 28 -97 145 -430 62 -176 117 -333 185 -530 16 -44 49 -138 75
-210 25 -71 65 -186 89 -255 58 -169 88 -224 160 -296 74 -74 127 -102 294
-156 70 -22 168 -54 217 -70 50 -16 97 -31 105 -33 8 -2 42 -13 75 -25 33 -11
61 -20 63 -20 5 2 197 -61 214 -71 10 -5 23 -9 30 -9 6 0 129 -38 272 -84 144
-46 362 -117 486 -156 344 -110 503 -162 765 -246 132 -43 245 -79 250 -80 6
-1 73 -22 150 -47 77 -25 241 -78 365 -117 124 -40 293 -94 375 -120 83 -27
251 -81 375 -120 124 -40 252 -81 285 -92 33 -11 65 -21 70 -22 60 -13 193
-64 210 -80 13 -12 72 -77 131 -146 227 -261 555 -581 838 -817 1109 -925
2432 -1504 3866 -1693 293 -38 485 -51 850 -57 674 -10 1211 43 1820 182 85
20 178 41 205 47 48 11 58 8 260 -56 116 -38 260 -84 320 -103 61 -19 135 -43
165 -53 30 -10 143 -46 250 -80 107 -34 220 -70 250 -80 51 -17 163 -53 765
-245 132 -42 265 -85 295 -95 30 -10 143 -46 250 -80 107 -34 265 -84 350
-112 85 -27 216 -69 290 -93 74 -24 243 -78 375 -121 252 -81 302 -91 348 -67
32 16 123 105 218 213 36 41 86 98 110 125 24 28 58 66 75 85 48 54 202 228
274 309 36 41 74 84 85 97 11 12 47 53 80 90 57 64 242 274 380 429 34 39 95
108 136 155 41 46 81 92 89 100 29 31 157 176 244 275 49 55 114 129 146 165
32 36 77 87 101 114 51 58 209 237 248 281 158 178 439 495 486 549 33 38 67
76 75 85 9 9 47 52 85 95 39 44 77 87 85 96 14 15 110 124 153 174 18 20 132
148 152 170 6 6 41 47 79 91 39 44 75 85 80 90 6 6 40 44 76 85 36 41 67 77
70 80 3 3 39 43 80 90 41 47 77 87 80 90 3 3 69 77 146 165 182 207 209 237
269 305 28 31 79 89 115 130 36 41 72 81 80 90 8 8 60 67 115 130 55 63 102
117 106 120 3 3 45 50 94 105 102 116 136 155 225 254 68 76 82 97 163 251 28
52 61 112 74 132 13 21 23 40 23 43 0 3 20 40 44 83 23 42 61 111 83 152 55
103 354 652 428 785 15 28 43 78 61 112 33 60 36 93 9 93 -15 0 -30 -14 -174
-169 -58 -62 -121 -129 -140 -150 -20 -21 -70 -75 -111 -120 -41 -45 -97 -106
-125 -135 -27 -28 -99 -105 -160 -171 -60 -65 -121 -131 -135 -145 -57 -61
-171 -183 -265 -284 -55 -59 -116 -125 -135 -146 -19 -20 -87 -93 -150 -161
-107 -115 -171 -185 -260 -279 -19 -21 -57 -62 -85 -92 -27 -29 -102 -110
-166 -178 -64 -69 -131 -141 -149 -160 -102 -110 -155 -168 -265 -285 -67 -71
-134 -143 -149 -160 -37 -40 -210 -227 -263 -282 -23 -25 -80 -86 -126 -137
-47 -50 -100 -107 -118 -127 -19 -19 -81 -86 -139 -148 -268 -288 -383 -412
-415 -446 -16 -17 -55 -58 -85 -91 -30 -32 -105 -113 -166 -179 -62 -66 -126
-136 -144 -155 -18 -19 -82 -88 -144 -154 -61 -65 -124 -133 -141 -151 -16
-18 -75 -81 -130 -140 -55 -59 -113 -122 -130 -140 -16 -18 -79 -86 -140 -151
-60 -65 -121 -130 -135 -145 -14 -15 -70 -75 -125 -134 -55 -59 -111 -119
-125 -134 -14 -15 -61 -65 -105 -112 l-80 -85 -345 108 c-190 60 -352 111
-360 113 -8 2 -58 17 -110 33 -94 30 -190 60 -934 291 -214 67 -393 124 -398
127 -5 3 54 49 130 103 147 103 279 201 352 262 l45 37 100 -30 c55 -16 136
-40 180 -53 111 -34 717 -215 735 -220 8 -2 62 -18 120 -35 58 -18 134 -40
170 -50 167 -48 168 -48 192 -36 21 11 126 115 323 321 43 44 190 197 329 339
138 142 280 289 316 326 36 37 178 183 315 325 138 141 285 294 329 339 43 44
187 193 320 330 132 136 279 288 326 336 47 48 193 199 325 335 132 136 274
282 315 325 41 43 185 191 320 330 335 345 616 635 965 995 33 34 161 166 285
294 124 127 228 240 232 251 13 37 -20 56 -117 70 -49 7 -97 14 -105 15 -8 2
-37 6 -65 9 -68 9 -263 38 -380 56 -33 5 -82 11 -110 15 -27 3 -75 9 -105 15
-30 5 -75 12 -100 15 -25 3 -56 8 -70 10 -14 3 -47 7 -75 10 -27 3 -57 8 -65
10 -8 2 -39 7 -69 10 -30 4 -62 8 -71 10 -9 2 -41 6 -71 10 -30 3 -61 8 -69
10 -8 2 -39 7 -69 10 -30 4 -63 9 -75 11 -12 2 -41 6 -66 9 -25 3 -72 10 -105
15 -104 15 -136 20 -280 40 -77 11 -151 22 -164 25 -14 2 -47 7 -75 10 -28 3
-58 7 -66 10 -8 2 -37 6 -65 10 -27 3 -95 13 -150 21 -55 8 -116 16 -135 19
-19 3 -48 7 -65 10 -16 3 -46 7 -65 9 -58 7 -134 18 -155 22 -11 2 -40 7 -65
10 -25 3 -56 7 -70 10 -14 2 -45 6 -70 10 -25 3 -52 7 -60 9 -8 2 -42 7 -75
11 -33 3 -62 7 -65 9 -3 2 0 52 6 112 41 360 54 1058 26 1388 -77 919 -276
1713 -627 2506 -855 1928 -2489 3424 -4481 4099 -583 198 -1149 316 -1794 376
-205 19 -901 27 -1110 13z"/>
</g>
</svg>
